<svg id="图层_1" data-name="图层 1" xmlns="http://www.w3.org/2000/svg" viewBox="0 0 217.58 78.77"><title>logOn</title>
    <path d="M57.33,73v50h23v9.07H48.69V73Z" transform="translate(-48.69 -72.98)"/>
    <path d="M98.51,99.12V90.26H120v41.83H87.85V90.26h8.5v33h15.12V99.12Z" transform="translate(-48.69 -72.98)"/>
    <path d="M159.85,90.26v61.49H127.74v-8.86h23.62v-14l-8.21,2.44H127.74V90.26Zm-23.61,32.26h6.91l8.21-2.45V99.12H136.24Z" transform="translate(-48.69 -72.98)"/>
    <path d="M226,132.09H189.66V73h8.64v50h19v-41H200.6V73H226Z" transform="translate(-48.69 -72.98)"/>
    <path d="M242.65,92.85l8.64-2.59h15v41.83h-8.5v-33h-6.34l-8.78,2.66v30.31h-8.5V90.26h8.5Z" transform="translate(-48.69 -72.98)"/>
</svg>