<svg id="图层_1" data-name="图层 1" xmlns="http://www.w3.org/2000/svg" viewBox="0 0 139.68 53.57">
    <path class="cls-1" d="M195.79,146.82v.07c-.1,0-.14-.07-.14-.22l-.22-.36-.14-.21-.44-6.63q-.85-9.14-1.22-14.33l-1.15-14.76-.22-2.08-.79,2,.29,3.82c.09,1.82.29,4.37.57,7.63q1.08,13,1.66,20.23s-.05.07-.14.07h-.15l-.07-.07.14,1.59a.8.8,0,0,1-.14.57l-.07.07.21,2.38c0,.19,0,.31-.14.36a.81.81,0,0,1-.5.43c-.1.1-.17.15-.22.15a.29.29,0,0,1-.22-.08c-.14-.14-.21-.23-.21-.28l-.22-2.16v-.08c-.09-.86-.14-1.48-.14-1.87l-.36-4.82q-.36-4.75-1.23-14.26-.42-6.61-.72-9.93a16.24,16.24,0,0,0-.72,1.51L190,127q.43,5.76,1.44,17.42a1.21,1.21,0,0,1-.22.58,1.77,1.77,0,0,1-.28.43h-.22a.32.32,0,0,1-.36-.36l-.14-1.51c-.2-2.16-.42-4.79-.69-7.89s-.54-6.7-.83-10.83c-.28-3.17-.48-5.52-.57-7.06-.34.67-.79,1.68-1.37,3l-.79,1.8-6.55,14.84-.87,1.87a22.19,22.19,0,0,1-1.44,3.24c-.14.29-.29.57-.43.86s-.31.6-.5.94l-.15.36-.43.57a3.23,3.23,0,0,0-.29.51,1.48,1.48,0,0,1-.5.36.6.6,0,0,1-.22.43c-.19.19-.5.48-.93.86h-.15l-.14-.07A1,1,0,0,1,173,147c-.15-.33-.31-.73-.51-1.19a16.38,16.38,0,0,1-.57-1.62l-.22.22a1.39,1.39,0,0,1-.29.43,1.16,1.16,0,0,1-.36.58,8.13,8.13,0,0,0,.51,1.08h.29l.36-.43.21-.36.07.07.08.36a.57.57,0,0,0,.07.36l-.07.14a1.2,1.2,0,0,1-.58.36l-.22.36-.64.65-.15.07h-.14a.44.44,0,0,1-.29-.14,26.32,26.32,0,0,0-1.15-2.81c-.05.14-.1.28-.15.4a1.92,1.92,0,0,1-.14.32l-.29.14-.07-.07a.29.29,0,0,1-.29-.14l-1.29-3c-.58-1.34-1-2.35-1.37-3q-2.44-6.19-5.4-13l-3.1-7.42-.21,3.67-.72,15.77c-.1,2.31-.2,4-.29,5.19l-.07,1.87v.29a2.67,2.67,0,0,0-.08.79,1.43,1.43,0,0,1,0,.29.67.67,0,0,0,0,.36V148c0,.05,0,.12-.14.21h-.22c-.33-.09-.5-.24-.5-.43v-.65H155l-.15-.14a.42.42,0,0,1-.21-.36v-.5l.07-1.52v-.07a.49.49,0,0,1-.36.15l-.14-.08c-.15-.09-.22-.19-.22-.28,0-.91,0-1.61.07-2.09l.22-5q.57-10.51.79-15.7l.29-6.69-.29-.72c-.1,3.16-.19,5.52-.29,7q-.57,10.52-.79,15.7l-.29,5.18-.07,1.95a2.3,2.3,0,0,1-.22.5l-.79.5-.07,1.37.07.29c.05.05,0,.17-.07.36a1.48,1.48,0,0,1-.5.36l-.15.07h-.14c-.1,0-.19-.16-.29-.36l-.07-.43a.68.68,0,0,1,0-.36.92.92,0,0,0,0-.29,3.33,3.33,0,0,1,.07-.79,11.28,11.28,0,0,1,.07-1.51l-.21-.36-.08-.29a2.12,2.12,0,0,1-.07-.58l.07-1.51c.1-2.2.2-3.89.29-5q.43-10.5.72-15.77.15-3.81.58-11.59a7,7,0,0,1-.51-1.22q-.28-.72-.72-2.16a3.81,3.81,0,0,1-.28-1.87c0-.05,0-.12.14-.22l.43-.14.07-.08.08.08s.07,0,.07.14V104l.14.28.29.94.43.94c0-.77,0-1.35.07-1.73q.07-2.23.36-7.2l.08-.07a1.36,1.36,0,0,1,.14.36.45.45,0,0,1,.14.36l-.14,3.24s.05-.12.14-.22l.08-.07v-.43c0-.15,0-.24,0-.29a.29.29,0,0,1,.07-.22V99c.09-.24.21-.39.36-.43l.79-.58a1.36,1.36,0,0,1,.36-.14h.22a.34.34,0,0,1,.21.36c-.09,2.4-.19,4.2-.29,5.4l.36.72.22-4.83-.07.07H156l.22-.28.07-.72c0-.24.07-.39.22-.44a2,2,0,0,1,.65-.64.46.46,0,0,1,.36-.15l.07.07a.26.26,0,0,1,.29.29l-.08,2,.15-.07a.33.33,0,0,1,.25.14.28.28,0,0,1,0,.29l-.08,1.94c0,.82,0,2.09-.14,3.82l.58,1.44,2.16,5.25c1.92,4.52,3.33,7.92,4.24,10.23q.3.72.72,1.65c.29.63.58,1.33.87,2.09.77,1.68,1.61,3.63,2.52,5.83l2,4.9,1.3,3.17.07-.29.22-.58.86-1.94q1.16-3,2.38-5.54l6.26-14.19,5.11-11.52v-1.22q0-.15,0-.54a2.2,2.2,0,0,1,0-.69l.08-.72v-.36l.14-.43a1,1,0,0,1,.5-.43,1.51,1.51,0,0,1,.4-.18l.25,0,.07-.07h.08a.07.07,0,0,1,.07.07,3.19,3.19,0,0,0-.58,1l-.07.43v1l1.8-4,.07-.36.15-.43.07-.22.21-.21L191,98a.46.46,0,0,1,.43-.29,4.22,4.22,0,0,1,.86-.14h.15c.19,0,.31.05.36.14s.12.34.07.43a3.23,3.23,0,0,1-.29.51l.14-.07.44-.87a.33.33,0,0,1,.36-.29,4.22,4.22,0,0,1,.86-.14s.05-.07.14-.07l.29.14a.58.58,0,0,1,.15.43c-.48,1-.82,1.69-1,2.16a.43.43,0,0,1,.21-.14,1.51,1.51,0,0,1,.8-.29.27.27,0,0,1,.28.22.32.32,0,0,1-.07.36,5.5,5.5,0,0,1-.43,1.15h.07l.07.07a.13.13,0,0,1,.15.15c.09,0,.14.17.14.36l-2.45,5.61.29,4.25.51,5.83q.28,4.32,1,13ZM155.54,112l-.29-.72v.36l.29.72Zm.36-6-.36-.72v1a1,1,0,0,0,.15.43l.14.29A5.33,5.33,0,0,1,155.9,105.92Zm13.32,38.74c-.48-1.3-.93-2.4-1.37-3.32q-1.57-3.59-4.6-10.94l-1.3-3.17-4.46-10.65v.28l4.82,11.6,4.9,11.52.93,2.3c.24.53.55,1.32.94,2.38Zm2.23-1.44-1.15-2.74-1.65-3.89-4.4-10.65-6.12-14.48c0-.14-.16-.47-.36-1a4.13,4.13,0,0,1-.07.93l.58,1.44v-.07l12.6,30.17c.05,0,.07,0,.07.07v.07a2.92,2.92,0,0,1,.29.65.06.06,0,0,1,.07.07v-.29Zm.65-2-7-16.92-6-14.33-1.15-2.73v1.22l.07.29c.38.86.65,1.51.79,1.94l1.37,3.39,1.94,4.6c.48,1.16,1.06,2.5,1.73,4s1.39,3.26,2.16,5.18l5.83,13.82.15-.14Zm3.46,2.38.14-.15-.14.15a1.05,1.05,0,0,0-.51.64l-.28.44-.44.43-.14.07-.14-.07-.29-.22-.15-.14a15.86,15.86,0,0,0-.72-1.73l-.21.36-.15.14c.1.25.2.46.29.65a3.91,3.91,0,0,1,.22.51l.07-.08.07.08.15.28.21.29v.07a.42.42,0,0,1-.14.29c0,.1.14.34.29.72a2.73,2.73,0,0,1,.79-.36l.43-.86.14-.36a.4.4,0,0,1,.08-.29l.28-.5Zm11.95-33.48q-1.23,2.88-2.23,5l-1.51,3.45-2.16,4.9q-.8,1.8-1.84,4.25c-.7,1.63-1.52,3.48-2.48,5.54-.15.29-.34.75-.58,1.37a12.7,12.7,0,0,1-.72,1.58l-1.87,4.18-.87,1.94q.15.43.36.9c.15.32.29.64.44,1l.28-.07.36-.36.15-.29a2.09,2.09,0,0,1,.07-.64l.07-.22a2.58,2.58,0,0,1,.22-.72c.29-.77.53-1.34.72-1.73l.14-.36-.21.36-.65.72-.58.51-.14.28h-.07a.55.55,0,0,1-.36.08l-.29.14h-.15l.36-.29.29-.36.29-.57a1.86,1.86,0,0,0,.22-.8c.09-.38.19-.72.28-1l.29-.94c.58-1.25.91-2,1-2.3l2.45-5.55,2.66-6.12,3.46-7.77,2.59-5.91Zm1.37-2.81a3.35,3.35,0,0,1,.36-.79.29.29,0,0,1-.07-.22l-.65,1.58v.22A4.41,4.41,0,0,0,188.88,107.29Zm3.74-8.57h-.07l-1.73,3.89v.14C191.25,101.89,191.85,100.55,192.62,98.72Z" transform="translate(-151.22 -97.14)"/>
    <path class="cls-1" d="M235.1,130.4v.29l-.07-.07-.29-.22-.21-.22-.08-.07-.07-.14c-.14-.53-.34-1.15-.57-1.87a19.84,19.84,0,0,0-5.76-8.86,11.93,11.93,0,0,0-2.6-1.8,11.37,11.37,0,0,0-3.24-1.22,13.82,13.82,0,0,1,2.09,1.22,15.39,15.39,0,0,1,2.45,1.37,14.36,14.36,0,0,1,2.88,2.59,26.08,26.08,0,0,1,2.3,3.24,24.31,24.31,0,0,1,2.31,5.69l.43,1.8v.72c-.1.1-.17.14-.22.14h-.21a1.24,1.24,0,0,1-.36-.5l-.15-.36-.14-.65a15,15,0,0,0-.58-1.87l-.64-1.59c-.1,0-.15,0-.15-.07v.72a3.76,3.76,0,0,1-.07.87.44.44,0,0,1,0,.36v1.36l.29,1.37-.29.58-.29.29v.43a4.68,4.68,0,0,1-.07,1,19.37,19.37,0,0,1-1,4.53,17.51,17.51,0,0,1-1.44,3.24,17,17,0,0,1-2.23,3,12.27,12.27,0,0,1-3.17,2.3l-1.37.58a12.63,12.63,0,0,1-2.16.64l.08-.07.14-.36.22-.29.07-.07a3.45,3.45,0,0,0,1.22-.43l.58-.22a10.75,10.75,0,0,0,1.44-.93,9.7,9.7,0,0,0,2.3-2.16l.51-.65-.51.5a15.14,15.14,0,0,1-4.25,2.52,17.27,17.27,0,0,1-5.68.94h-.22a20.37,20.37,0,0,1-6.62-1.08h-.15a14.66,14.66,0,0,1-5.69-2.74,16,16,0,0,1-2-2.08l-.87-1.37a2.62,2.62,0,0,1-.32-.54,3,3,0,0,0-.25-.47h.07l.36.07.36.15h.07l.72,1,.65.72.36.29-.29-.36A15.58,15.58,0,0,1,201,138a34.06,34.06,0,0,1-.86-3.6,32.92,32.92,0,0,1-.65-3.67c-.05-.48-.07-1.2-.07-2.16a18,18,0,0,1,.14-2.59,14.72,14.72,0,0,1,.22-1.51.24.24,0,0,0,.07-.18.23.23,0,0,1,.07-.18.88.88,0,0,1,0-.51,14.63,14.63,0,0,1,.51-2.52v.07l.14.36.15.29V122a12.64,12.64,0,0,0-.36,2.08v.58a.29.29,0,0,1-.08.22h.08a9.22,9.22,0,0,0-.08,1.44,6.81,6.81,0,0,1,.29-1.37v-.15a15.44,15.44,0,0,1,.51-2.37,22.26,22.26,0,0,1,1.15-3,14.39,14.39,0,0,1,1.87-2.8,12.86,12.86,0,0,1,3.46-2.74,16.91,16.91,0,0,1,4.89-1.51c1.06-.1,1.85-.15,2.38-.15a15.11,15.11,0,0,1,2.37-.14c1,0,1.68,0,2.16.07a11,11,0,0,1,2.6.51,23.66,23.66,0,0,1,3.09,1.15l-.07.07-.29.07-.36.15h-.07a10.23,10.23,0,0,0-1.3-.36H223l-.58-.15,2.09,1.15-.07.08a1.69,1.69,0,0,1-.36.14l-.29.14h-.07l.86.36,1.73.87,1.8,1.29,1.58,1.52a19.85,19.85,0,0,1,2.16,3,21.19,21.19,0,0,1,2.52,5.61c.24.77.43,1.44.58,2S235.1,130.4,235.1,130.4Zm-31.75,5.47a11.6,11.6,0,0,0,2.38,3.89,15.8,15.8,0,0,1-1.66-4.32A18.67,18.67,0,0,1,202.7,129l-.07-1.22.07-1.16.07-1.15a.29.29,0,0,1,.08-.21v-.58a16.44,16.44,0,0,1,.28-1.73,11,11,0,0,1,.58-2.09l-.65.94-.43,1.66a8.18,8.18,0,0,0-.14,1.36v.36l-.08.22a8.51,8.51,0,0,0-.21,1.87,35.36,35.36,0,0,0,.07,3.82,24.62,24.62,0,0,0,.36,2.45C202.92,134.55,203.16,135.35,203.35,135.87Zm18.14,8.86c-.67.14-1.51.31-2.52.5-.48.05-1.2.07-2.16.07h-.57a15.31,15.31,0,0,1-3.1-.28,18.08,18.08,0,0,1-2.59-.58l-.22.22-.93-.65a3.49,3.49,0,0,1-.94-.43l-.79-.36a14,14,0,0,1-1.73-.87,11.39,11.39,0,0,1-2.3-1.8l.72,1,1.08,1.15a6.3,6.3,0,0,1,.93.72,16.37,16.37,0,0,0,2.16,1.44,12.22,12.22,0,0,0,3.1,1l.79.22h.07c1.16.09,2,.14,2.6.14h.79a20.54,20.54,0,0,0,2.81-.36,8.42,8.42,0,0,0,2.3-.94Zm5-20.31-1.29-2.16v.08l-.79-1-.8-.94a3.29,3.29,0,0,0-.79-.5,8.82,8.82,0,0,0-1.51-.79,15,15,0,0,0-3.6-.87c-1.06-.09-1.8-.14-2.23-.14s-1.25,0-2.31.14l-1.44.22-.65.29a8.64,8.64,0,0,0-2.44,1.72,11.5,11.5,0,0,0-2.74,3.89,12.8,12.8,0,0,0-1,3.6,6.69,6.69,0,0,0-.14,1l.07.22-.07.14a5.63,5.63,0,0,0-.14,1.08v1.15a11.63,11.63,0,0,0,.21,2.23,1.47,1.47,0,0,0,.07.58l.22.86.22.51.21.57.79,1.37q.23.36.87,1.23a13.13,13.13,0,0,0,2.09,1.94,12.91,12.91,0,0,0,3.45,1.73,16.54,16.54,0,0,0,1.87.5,15.91,15.91,0,0,0,2.52.36,3.42,3.42,0,0,0,.8-.07,12.4,12.4,0,0,0,1.94-.43,10.92,10.92,0,0,0,3.24-1.73,10.78,10.78,0,0,0,2.52-2.74,9.55,9.55,0,0,0,.93-1.44c.1-.19.39-.81.87-1.87l.65-1.8v-.21c.09-.87.14-1.49.14-1.88l-.14-.43-.15-.5v-.15l-.07-.28c-.05-.05-.05-.15,0-.29s0-.15.07-.15.05-.14.15-.14l.29-.07h.07c-.29-.87-.63-1.82-1-2.88C227.08,125.5,226.77,124.86,226.53,124.42Zm-21.16-3.67a13.89,13.89,0,0,1,3.38-3.89l-1.58.72A11.77,11.77,0,0,0,205.37,120.75Zm1.94-.5a3.12,3.12,0,0,0-.65,1,8.36,8.36,0,0,1,1.08-1.3ZM208.46,142a5.27,5.27,0,0,0,1.3.65l.72.22,1,.21a11.15,11.15,0,0,1-3.24-1.87,11.71,11.71,0,0,1-1.37-1.22A10.36,10.36,0,0,0,208.46,142Zm.65-23.69a9.68,9.68,0,0,1,1.44-.5l.65-.22,1.37-.5a18.84,18.84,0,0,1,4.68-.79h1.58a16.5,16.5,0,0,0-3.74-.36h-.29a11.69,11.69,0,0,0-5.47,2.16Zm14.4-3.31-.43-.21-1.15-.58-1.3-.43-1.3-.29-1.08-.14h-.93l-1.23.07c-.33,0-.69.1-1.08.14l-1.08.15a12.85,12.85,0,0,0-3.24,1.08,6.19,6.19,0,0,0-.86.5,12.66,12.66,0,0,1,2.59-.5l1.23-.15,1.29-.29c1.06-.09,1.8-.14,2.23-.14a3.37,3.37,0,0,1,.8-.07h.64a12.69,12.69,0,0,1,1.44.14,26.09,26.09,0,0,1,2.6.43Zm-.14,27.87.57-.29.36-.22a12.77,12.77,0,0,0,2.23-3.45,12.49,12.49,0,0,1-4.1,4,14.49,14.49,0,0,1-2.74,1.08h.36a2.31,2.31,0,0,1,.72-.15l.72-.21.65-.22.65-.22Zm-2.67-25.13a3.75,3.75,0,0,0-.86-.15,12.85,12.85,0,0,1,2.45.87,14.39,14.39,0,0,1,3.09,1.87l1.37,1.22a20.57,20.57,0,0,0-1.87-2l-1.15-1A14.11,14.11,0,0,0,220.7,117.73Zm6.12,24.12c.05,0-.34.26-1.15.93a23.78,23.78,0,0,1-2,1.95,2.55,2.55,0,0,0,.58-.36,16.67,16.67,0,0,0,1.73-1.51Zm.51-17.86.57,1.15a4.68,4.68,0,0,1,.65,1.44h.07c.1-.09.17-.14.22-.14l-.43-.72-.87-1.44Zm3,8.28s0-.26-.07-.79a2.9,2.9,0,0,0-.07-.72l-.22-.5v-.51c-.1-.14-.05-.26.14-.36l-.07-.07-.43-1.08a.12.12,0,0,0,0,.11s0,.06,0,.11a1.76,1.76,0,0,1,.07.57h-.14l-.15-.14.08.21.21.72.15.65a1.84,1.84,0,0,1-.08.58.42.42,0,0,1-.07.29l-.07.14-.07.07v.79a21.05,21.05,0,0,1-.72,3.68,15.71,15.71,0,0,1-1,3l.36-.5.93-1.52.51-1.08a9.21,9.21,0,0,0,.36-1.58.77.77,0,0,0,.07-.36C230.25,132.85,230.35,132.27,230.35,132.27Zm-1.23-9.57a21.82,21.82,0,0,1,1.88,3.45l.21.65a.42.42,0,0,1,.29-.07l-.14-.51h.14l-1.29-2.16Z" transform="translate(-151.22 -97.14)"/>
    <path class="cls-1" d="M259.87,117.08l-.14.22c-.05.14-.2.21-.44.21a.27.27,0,0,1-.21-.07l-.94-.94a5.27,5.27,0,0,0-.93-.72.46.46,0,0,0-.29-.14l-.29-.14-.29-.15-.36-.07-.36-.07H255l-.28.07c.23.14.59.41,1.08.79h.07l1.29.43,1,.58.29.29a10.31,10.31,0,0,1,.94.93l.21.44a1.1,1.1,0,0,1,0,.57l-.29.22h-.14a.34.34,0,0,1-.22-.07l-.43-.58-.65-.65a2.14,2.14,0,0,0-.57-.5,1.77,1.77,0,0,0-.43-.29l-.29-.22h-.08v.22s-.07.12-.21.22l-.15.07a.28.28,0,0,1-.21-.07l-.22-.22-.5-.5H255l-.28.07a.74.74,0,0,0-.36.07l.29.14a7.07,7.07,0,0,1,2.08,1.73,1.5,1.5,0,0,1,.36.51q.15.29,0,.36a.41.41,0,0,1-.28.28h-.15c-.05,0-.12,0-.22-.14l-.71-.79-.51-.43h.07l-.07-.08-.22-.14.08.07-.29-.21-.29-.22-.36-.14-.29-.15-.29-.07-.21-.07H253l-.36.21-.29.22-.36.29-.29.29-.36.28-.29.29a27.82,27.82,0,0,0-3.45,5.11,23.51,23.51,0,0,0-1,2.24l-.22.86a.29.29,0,0,0-.07.18.24.24,0,0,1-.07.18v.22a.39.39,0,0,1,.07.28.42.42,0,0,1,.07.29l-.14.29a.34.34,0,0,0-.22.07,1.16,1.16,0,0,0-.43.07h-.5c-.05,0-.12,0-.22-.14a.41.41,0,0,1-.07-.29v-.14c.05-.1.1-.18.14-.25A.59.59,0,0,0,245,128a1.12,1.12,0,0,0,.07-.43l.14-.29a2.16,2.16,0,0,1-.65-.14c0,1.92,0,3.36.08,4.32,0,5.28,0,9.21.07,11.81,0,2.3,0,4,.07,5.18a1.06,1.06,0,0,0-.14.36v1.73a.27.27,0,0,1-.08.21h-.07l-.14-.07a.51.51,0,0,1-.36-.14c-.1-.1-.14-.17-.14-.22a.55.55,0,0,1-.08-.36v-.29a.27.27,0,0,1-.21-.07.46.46,0,0,1-.15-.36.57.57,0,0,1-.07-.36v-1.65a.41.41,0,0,1-.29.07H243c-.19-.1-.29-.19-.29-.29a14,14,0,0,1-.07-1.66v-3.74L242.59,130c0-1.06,0-1.85-.07-2.38a.29.29,0,0,1-.22.07h-.14v1.88l.14,11.8V145a9.75,9.75,0,0,0,.07,1.44c-.09.28-.21.45-.36.5l-.79.65h-.07v1.22a.42.42,0,0,1,.07.29c.1.19.07.31-.07.36a.92.92,0,0,1-.43.43.29.29,0,0,1-.22.07h-.14a.41.41,0,0,1-.29-.28.46.46,0,0,0-.15-.36V146l-.07-.07a.23.23,0,0,1-.07-.18.24.24,0,0,0-.07-.18l-.07-.43v-5l-.15-11.59-.07-17c0-.1.05-.15.14-.15l.08.08.21.28a.24.24,0,0,1,.07.18.22.22,0,0,0,.08.18v3l.14-.15a13.15,13.15,0,0,0-.07-1.58,1,1,0,0,1,.36-.5l.79-.65a1.09,1.09,0,0,1,.43-.15h.15a.8.8,0,0,1,.28.36V118l.08,5a1.06,1.06,0,0,1,.14-.44l.22-.5c0-1.73,0-3.05-.08-4v-5.11a.71.71,0,0,1,.15-.51l.65-.64a.58.58,0,0,1,.43-.22h.07c.19.1.29.22.29.36l.07,1.66V114a.41.41,0,0,1,.29.15.44.44,0,0,1,.14.29v3.81a20.14,20.14,0,0,1,2.74-3.6q2.52-2.66,4.9-2.81h1a5.91,5.91,0,0,1,1.52-.21,2.87,2.87,0,0,1,.79.07,5,5,0,0,1,1.44.5l.5.29.87.65s-.05.12-.29.22l-.29.14h-.22l-.5-.22-.51-.14-.64-.07a9,9,0,0,1,1.22,1.15l-.14.07a6.5,6.5,0,0,1,1.29.72,2.29,2.29,0,0,1,.44.36l.93.87a1.12,1.12,0,0,1,.15.5Zm-15.27,5.18.08-.21-.08.14Zm.22,3.06.14-.46-.36-.22v1.22A2.92,2.92,0,0,0,244.82,125.32Zm6.26-9.75a1,1,0,0,1-.43.14l-.43.22-1,1.29c-.43.68-.89,1.42-1.36,2.24L249,117.8a13.76,13.76,0,0,1,2-2.16C251.06,115.64,251.08,115.62,251.08,115.57Zm-.5,2.81-.29.14s0,.12-.14.22l-.43.64Zm5-4.47-.36-.29-.72-.36-.58-.14a8.83,8.83,0,0,0-1.22.58l-.36.21-.29.22-.29.29h.08a4.13,4.13,0,0,1,.93.07,4.13,4.13,0,0,1,.94-.36,4.35,4.35,0,0,1,1.44-.22Zm-1.37,2.23L254,116a1.36,1.36,0,0,1-.36-.14l-.22-.15-.72.43-.93.8a2.2,2.2,0,0,1,.71-.15,6.45,6.45,0,0,1,1.44-.65Zm1.08,2.52v.08s0-.08-.07-.08Z" transform="translate(-151.22 -97.14)"/>
    <path class="cls-1" d="M290.83,129.1l-.29.22.07.14-.07-.07c0,.05,0,.07.07.07v.08l.15.28a1,1,0,0,1,0,.72.35.35,0,0,1-.07.36.3.3,0,0,1-.29.15h-.08a3.33,3.33,0,0,0-.79.07h-.86a.5.5,0,0,1-.11.29.3.3,0,0,1-.25.14l-10.44.36-11.09.36a1,1,0,0,1-.57-.21l-.37-.36a.43.43,0,0,1,0-.36c.07-.15.16-.22.25-.22h.43a4.18,4.18,0,0,0,.94-.07h.65q-.15-.08-.15-.36c.1-.19.2-.29.29-.29q1.23-.14,2.13-.18c.6,0,1.09,0,1.47,0l7.28-.21c3.16-.1,5.59-.15,7.27-.15l1.29-.07.07-.29c.1,0,.2.1.29.29a14.11,14.11,0,0,0,1.66-.07l.07-.07.14-.29-2.88.14-7.05.22c-3.27.1-5.74.14-7.42.14-.48.05-1.27.08-2.37.08l-.87.07h-.57c-1.3,0-2.26,0-2.88.07l-.58-.29-.22-.29-.07.58a14.64,14.64,0,0,0,.15,1.73v.65l.07.36v.14a2.57,2.57,0,0,0,.14.72,10.35,10.35,0,0,0,.58,1.94,2.87,2.87,0,0,0,.43,1,.49.49,0,0,0,.14.36,1.51,1.51,0,0,0-.07-.5v-.15l.07.08.15.36a.42.42,0,0,1,.14.28l.07.08v.14H267v.22a.27.27,0,0,0,.07.21,1.27,1.27,0,0,1,.14.43l-.07-.07.07.29a5.22,5.22,0,0,0,.58,1.58,13.57,13.57,0,0,0,1.58,2.6,12.5,12.5,0,0,0,2.45,1.36l.72.22a11,11,0,0,1-1.22-.94,12,12,0,0,1-1.88-2l-.79-1.23a11.34,11.34,0,0,0-.57-1.29l.14.07.07.07a.24.24,0,0,1,.22.22.13.13,0,0,1,.14.14c.48.72.75,1.11.79,1.15a12.38,12.38,0,0,0,1,1.23.42.42,0,0,1,.29.29,10.51,10.51,0,0,1,1.15.93,4.52,4.52,0,0,1,.69.36,3,3,0,0,0,.68.36,7.33,7.33,0,0,0,2.81.87,7.71,7.71,0,0,0,2.23.28,9.11,9.11,0,0,0,3.53-1.36L282,143h-.28a8.4,8.4,0,0,1-1.3.07l.14-.07a13.27,13.27,0,0,1-2.52.22,18.93,18.93,0,0,1-2-.08c-.1,0-.05,0,.14-.14l.29-.14a.29.29,0,0,1,.22-.08h.36a15.84,15.84,0,0,0,1.8-.07,6.11,6.11,0,0,0,1.65-.43l.87-.43.86-.51a5.84,5.84,0,0,0,1.3-1.22,7.17,7.17,0,0,0,1.22-2.09l.07-.14a.8.8,0,0,0,.07-.36H285l-.08-.07a.41.41,0,0,1,.15-.29c0-.1.05-.15.14-.15a2.69,2.69,0,0,1,.79-.14h.44l.14.14a.31.31,0,0,1,.07.22v.22a6,6,0,0,1-.57,1.36l-.43.87v.07l-.08.29.08-.07a9.64,9.64,0,0,0,.71-1.08l.44-1,.07-.15a.28.28,0,0,1,.07-.21v-.07L287,137a.45.45,0,0,1,.29-.28,1.5,1.5,0,0,1,.5-.08l.29-.07h.22a.87.87,0,0,1,.29.36,2.25,2.25,0,0,1-.15.72l-.28.87L288,139l.07-.07.58-.15c0,.05,0,.07.14.07l.14.08v.79l-.21.72.21.36a2.16,2.16,0,0,1-.07.65,2.89,2.89,0,0,1-.5,1.29l-.65,1.23-.58.93-.72.72a10.33,10.33,0,0,1-2.59,1.59,13.14,13.14,0,0,1-2.45.64,9.91,9.91,0,0,1-2.73.58,8.4,8.4,0,0,1-1.3.07c-.43,0-1.13-.05-2.08-.14a16.71,16.71,0,0,1-4-1,12.94,12.94,0,0,1-4-2.81l-.86-.93c-.2-.1-.29-.19-.29-.29a9.79,9.79,0,0,1-2.67-3.31,9.65,9.65,0,0,1-1.22-3.17l-.14-.87v-.21l-.15-.43-.14-1.16a25.64,25.64,0,0,1-.15-3.24c0-1,0-1.7.08-2.23a11.89,11.89,0,0,1,.36-2.3l.36-1.73a2.81,2.81,0,0,1,.21-1.08,15.9,15.9,0,0,1,1.87-5.18,11.36,11.36,0,0,1,2.81-3.39,3.86,3.86,0,0,1,.72-.54c.29-.16.51-.3.65-.39l1.37-.72a19.42,19.42,0,0,1,3.53-.8,13.56,13.56,0,0,1,2.3-.21l1.22.07,1.16.22h2l.72.14a7.39,7.39,0,0,1,2.31.72,5.75,5.75,0,0,1,.93.43c.34.19.6.34.79.43.73.58,1.13.92,1.23,1,.62.63,1,1,1.08,1.15a8.44,8.44,0,0,1,1.73,3,11.53,11.53,0,0,1,1,2.8l.22,1.23v.07a17.53,17.53,0,0,1,.36,1.73l.15,1v.64l-.08.36v.08l.22.64a1,1,0,0,1,.07.44Zm-25.63-7.41c0-.24.09-.46.14-.65l-.86,1.87c-.1.19-.41.94-.94,2.23l-.43,2.38a23.92,23.92,0,0,0-.36,3.89c0,1.15,0,2,.07,2.52a6.64,6.64,0,0,0,.14,1.15,2.11,2.11,0,0,0,.08.65,11.39,11.39,0,0,0,1.36,4l-.36-1.08a3.5,3.5,0,0,0-.14-.79v-.22s-.07-.19-.07-.43l-.22-1.37v-.86c-.05,0-.07,0-.07-.08a17.66,17.66,0,0,1-.07-1.87c-.05-.57-.07-1.46-.07-2.66l.07-1.59a6.62,6.62,0,0,1,.14-1.58,7.62,7.62,0,0,1,.36-1.73l.58-1.8a1.24,1.24,0,0,0,.21-.5l.22-.79A2.49,2.49,0,0,0,265.2,121.69Zm.28-3.17-.28.58,1.29-1.37a11.08,11.08,0,0,1,1.08-.79h.15l1.08-1.23,1.51-1h-.14l-1.23.65-.58.29-.57.43.14-.14-.79.72a2.32,2.32,0,0,1-.43.36,4.94,4.94,0,0,0-.94,1.22Zm21.17,9.22-.14-.36v-.15l-.07-.5c-2.12.1-3.75.14-4.9.14l-7.78.29-2.88.07h-2.15l-.37.07-.14-.07h-.79l-.22.07c-.09,0-.14,0-.14-.07h-.15a.33.33,0,0,0-.21.07l-.43.08a.29.29,0,0,1-.22-.08.25.25,0,0,1-.07-.21l.22-.29a1.51,1.51,0,0,1,.35-.14.26.26,0,0,1,.19-.08.21.21,0,0,0,.17-.07h.29a2.12,2.12,0,0,0,.65-.07c1.15,0,2,0,2.52-.07l7.06-.22,2.95-.07c2.59-.1,4.56-.14,5.9-.14a6.44,6.44,0,0,0-.36-1.44,15.25,15.25,0,0,0-2.16-4,8.82,8.82,0,0,0-5-3,14,14,0,0,0-2.37-.22l-1.23.08a16.44,16.44,0,0,0-1.73.28,9.34,9.34,0,0,0-1.72.58,11.32,11.32,0,0,0-2.88,1.8,14,14,0,0,0-1.66,2.23.29.29,0,0,0-.07.22c.09-.24.19-.39.29-.43h.07l-.07.07-.22.57a15.6,15.6,0,0,0-.79,1.44,2.76,2.76,0,0,0-.43,1l-.15.65c-.09.34-.26,1-.5,1.94a5.4,5.4,0,0,0-.07,1h.14l.36-.07a4.87,4.87,0,0,0,.94-.07h1.51a.4.4,0,0,1,.29-.15l.36-.07a1.16,1.16,0,0,1,.5,0l.43,0,2.59-.14,7.06-.22,7.2-.21Zm-21.45,7.48c0,.15,0,.25.07.29a10.62,10.62,0,0,0,.79,2.67,14.22,14.22,0,0,0,1.37,2.37l-.15-.29a15.31,15.31,0,0,1-.57-2.37h-.15l-.07-.07a7,7,0,0,1-.65-1.08Zm3.74,9-.86-.72.07.15.65.65a5,5,0,0,0,.86.36,1.71,1.71,0,0,0,.43.21,2.18,2.18,0,0,1,.36.15Zm1.66,1.08-.22.15.14.07,1.08.58h-.07l.22.07.5.14a.68.68,0,0,0,.51.22h.14a9.19,9.19,0,0,1-2.09-1.3A.31.31,0,0,0,270.6,145.3ZM274.84,115l-1.22.29h.86a15.73,15.73,0,0,1,1.59.07,1.09,1.09,0,0,1,.43.15l.07-.08h.22l.86.08a5.63,5.63,0,0,1,1.08.14l.15.07.07-.07.29-.14.07-.08h.29a11.54,11.54,0,0,0-3.1-.43h-1.66Zm.37,31.18a12.08,12.08,0,0,0,2.59.36h1.94a5.64,5.64,0,0,0,1.51-.15,1,1,0,0,0,.44-.07l.86-.43c-.58.1-1.3.19-2.16.29H280l-1.16-.07a2.78,2.78,0,0,1-.79.07,9.14,9.14,0,0,1-1.29.07A11.18,11.18,0,0,1,275.21,146.17ZM279.88,116a.55.55,0,0,0-.21,0l.86.43a9.85,9.85,0,0,1,2.67,1.73,9.28,9.28,0,0,1,1.94,2.16,1,1,0,0,0-.22-.65c-.38-.62-.64-1-.79-1.22a5.15,5.15,0,0,0-1.08-1.16l-.57-.39-.79-.54-.87-.22L280,116A.28.28,0,0,1,279.88,116Zm4-.54a7.42,7.42,0,0,1,1.65,1.59l.65.43-.22-.22a17.79,17.79,0,0,0-1.44-1.36Zm.21,27.8a1.59,1.59,0,0,0,.43-.29,1.31,1.31,0,0,1,.29-.22l1-1a1.12,1.12,0,0,1-.58.36,1.08,1.08,0,0,1-.28.22l-.29.14-.36.51Zm3.24-17.36h.15v-.07l-.29-.86A4.28,4.28,0,0,0,287.37,125.86Zm2.45,1.59a.29.29,0,0,0-.07-.22l-.07-.07a1.17,1.17,0,0,1-.08-.5h-1.43l-.08.07a.8.8,0,0,1-.36-.07.28.28,0,0,1-.21.07V127l.07.28-.07.36c1,0,1.68,0,2.16-.07l.14-.07Zm-2.16-6.55a17,17,0,0,1,.51,2.08c0,.15.09.36.14.65a4.11,4.11,0,0,1,.07.65,1.17,1.17,0,0,0,.07.5,2.45,2.45,0,0,1-.14.65v.07a1.24,1.24,0,0,1,.14.44h1a.29.29,0,0,0-.07-.22l-.07-.43a1.15,1.15,0,0,0-.15-.51,12.21,12.21,0,0,0-1.22-3.31Z" transform="translate(-151.22 -97.14)"/>
</svg>