<svg id="图层_1" data-name="图层 1" xmlns="http://www.w3.org/2000/svg" viewBox="0 0 235.29 50.33">
    <title>note</title>
    <path d="M281.59,101.75,282.67,134a4,4,0,0,1-1.3,3.09,4.51,4.51,0,0,1-3.24,1.23,3.79,3.79,0,0,1-2.8-1.26,4.7,4.7,0,0,1-1.37-3l-1.08-37.37A6.76,6.76,0,0,1,275,91.38a7.35,7.35,0,0,1,5.18-2.08A6.9,6.9,0,0,1,285.84,92l18.29,31.32-.22-29.59a4.13,4.13,0,0,1,1.15-3.1,4,4,0,0,1,3-1.29,4,4,0,0,1,3.13,1.08,4.16,4.16,0,0,1,1.4,3l.43,39.82a5.22,5.22,0,0,1-1.69,4.17,5.73,5.73,0,0,1-4.07,1.66A5.53,5.53,0,0,1,303,137Zm-5.54-6.3a4.71,4.71,0,0,0,.61-1,9.92,9.92,0,0,1,.61-1.08c.24-.29.52-.59.83-.9a6.38,6.38,0,0,0,.68-.76.31.31,0,0,0-.07-.5c-.53-.34-1.37.19-2.52,1.58a4.1,4.1,0,0,0-.94,2.16.8.8,0,0,0,.22.58C275.66,95.7,275.85,95.67,276.05,95.45Z" transform="translate(-272.88 -88.94)" style="fill:#3f3f3f"/>
    <path d="M350.06,135.3q-6.27-4.68-8.5-13.82a37.76,37.76,0,0,1-1.15-9.5,27.37,27.37,0,0,1,.36-5,23.85,23.85,0,0,1,3.6-9.07,22.48,22.48,0,0,1,3.39-3.78,18.52,18.52,0,0,1,4.6-3.14,20.25,20.25,0,0,1,4.79-1.54,28.05,28.05,0,0,1,5.51-.54,25,25,0,0,1,6.23.75A15,15,0,0,1,374,92a18.74,18.74,0,0,1,6.41,8.57,33.92,33.92,0,0,1,2.16,12.53,35.42,35.42,0,0,1-1.37,10.65,22.36,22.36,0,0,1-4.1,7.78,19.75,19.75,0,0,1-5.83,4.9,20.5,20.5,0,0,1-7.49,2.37c-1.73.15-2.66.22-2.81.22A17.66,17.66,0,0,1,350.06,135.3Zm-4-31.17A7.06,7.06,0,0,0,347,103l1.08-1.44a11,11,0,0,1,1.08-1.08l.58-.54a1.53,1.53,0,0,0,.5-.69.37.37,0,0,0-.14-.43.83.83,0,0,0-.58-.14,2.64,2.64,0,0,0-1.4.57,7.34,7.34,0,0,0-1.55,1.51,4.48,4.48,0,0,0-1.44,2.74,1.09,1.09,0,0,0,.36.79C345.64,104.42,345.86,104.37,346.1,104.13ZM369.86,125q3-3.67,3-11.88a26,26,0,0,0-1.22-8.64,11.13,11.13,0,0,0-3.1-4.47,8.38,8.38,0,0,0-5.4-1.72,18.74,18.74,0,0,0-7.56,1.87s-.45.31-1.22.79a8.5,8.5,0,0,0-2.45,3,17.35,17.35,0,0,0-1.94,8.79,26,26,0,0,0,.72,6.19q1.29,5.61,4.75,8.35a9.4,9.4,0,0,0,7.06,1.95A11.08,11.08,0,0,0,369.86,125Z" transform="translate(-272.88 -88.94)" style="fill:#3f3f3f"/>
    <path d="M446.18,97a4.19,4.19,0,0,1-2.88,1.34l-10,.21.22,35.57a4.31,4.31,0,0,1-1.26,3.1,4.69,4.69,0,0,1-3.06,1.44,4.44,4.44,0,0,1-4.4-4.4l-.21-35.49L413.71,99a4.16,4.16,0,0,1-3.24-1.23,4.28,4.28,0,0,1-1.3-3.17,4.38,4.38,0,0,1,4.1-4.32l29.6-.72a4.19,4.19,0,0,1,3.24,1.23A4.31,4.31,0,0,1,447.4,94,4.15,4.15,0,0,1,446.18,97ZM412.91,92.9a3.24,3.24,0,0,0,.65-.54c.15-.17.12-.33-.07-.47a.68.68,0,0,0-.5-.15,2.41,2.41,0,0,0-1.8,1,2.91,2.91,0,0,0-.65,1.44.88.88,0,0,0,.36.72.28.28,0,0,0,.21.07c.2,0,.41-.21.65-.64a7.22,7.22,0,0,1,.58-.94A2.14,2.14,0,0,1,412.91,92.9Z" transform="translate(-272.88 -88.94)" style="fill:#3f3f3f"/>
    <path d="M503.85,130.55a4.09,4.09,0,0,1,3.06,1.3,4.27,4.27,0,0,1,1.26,3.09,4.3,4.3,0,0,1-4.32,4.32H478.36a4.3,4.3,0,0,1-4.32-4.32V94a4.3,4.3,0,0,1,4.32-4.32h25.49A4.3,4.3,0,0,1,508.17,94a4.27,4.27,0,0,1-1.26,3.09,4.09,4.09,0,0,1-3.06,1.3h-17a3.94,3.94,0,0,0-2.92,1.19,3.88,3.88,0,0,0-1.19,2.84v7.2h17.14a4.25,4.25,0,0,1,3.06,1.3,4.07,4.07,0,0,1,1.33,3A4.18,4.18,0,0,1,503,117a4.28,4.28,0,0,1-3.06,1.29H482.75v8.93a3.17,3.17,0,0,0,1,2.38,3.34,3.34,0,0,0,2.41.93ZM476.92,95.27a3.43,3.43,0,0,0,.61-1,3.61,3.61,0,0,1,.54-.93,4.15,4.15,0,0,1,.83-.61,2.57,2.57,0,0,0,.76-.65c.14-.22.07-.42-.22-.61a1.4,1.4,0,0,0-.93-.29,3.09,3.09,0,0,0-2.16,1.08,2.78,2.78,0,0,0-.8,1.73,1.4,1.4,0,0,0,.65,1.22C476.49,95.44,476.73,95.46,476.92,95.27Z" transform="translate(-272.88 -88.94)" style="fill:#3f3f3f"/>
</svg>