<svg id="图层_1" data-name="图层 1" xmlns="http://www.w3.org/2000/svg" viewBox="0 0 209.08 80.21">
    <path class="cls-1" d="M163.14,180.05H129.3V171h25.2V154.85H129.3V120.94h33.84V130h-25.2v15.77h25.2Z" transform="translate(-129.3 -119.5)"/>
    <path class="cls-1" d="M171.35,119.5h8.49v10.08h-8.49Zm0,18.72h8.49v41.83h-8.49Z" transform="translate(-129.3 -119.5)"/>
    <path class="cls-1" d="M219.73,138.22v61.49H187.62v-8.86h23.61v-14l-8.2,2.45H187.62V138.22Zm-23.62,32.26H203l8.2-2.45V147.08H196.11Z" transform="translate(-129.3 -119.5)"/>
    <path class="cls-1" d="M236,140.81l8.64-2.59h15v41.83h-8.5v-33h-6.33L236,149.74v30.31h-8.49V138.22H236Z" transform="translate(-129.3 -119.5)"/>
    <path class="cls-1" d="M298.06,180.05h-8.64V120.94h8.64Z" transform="translate(-129.3 -119.5)"/>
    <path class="cls-1" d="M314.77,140.81l8.64-2.59h15v41.83h-8.49v-33h-6.34l-8.78,2.66v30.31h-8.5V138.22h8.5Z" transform="translate(-129.3 -119.5)"/>
</svg>