<svg id="图层_1" data-name="图层 1" xmlns="http://www.w3.org/2000/svg" viewBox="0 0 406.12 88.78"><title>未标题-1</title><text transform="translate(0 18.48)" style="font-size:21px;font-family:Anglesans, Angle sans">All <tspan x="31.77" y="0" style="letter-spacing:-0.00999813988095238em">t</tspan><tspan x="40.99" y="0">he </tspan><tspan x="71.52" y="0" style="letter-spacing:-0.024995349702380952em">r</tspan><tspan x="79.61" y="0">e</tspan><tspan x="91.68" y="0" style="letter-spacing:0.00999813988095238em">l</tspan><tspan x="97.06" y="0" style="letter-spacing:-0.03999255952380952em">e</tspan><tspan x="108.29" y="0" style="letter-spacing:-0.01999627976190476em">v</tspan><tspan x="119.97" y="0" style="letter-spacing:-0.009974888392857142em">a</tspan><tspan x="131.65" y="0">nt </tspan><tspan x="159.81" y="0" style="letter-spacing:-0.024995349702380952em">r</tspan><tspan x="167.89" y="0" style="letter-spacing:-0.00999813988095238em">e</tspan><tspan x="179.76" y="0">co</tspan><tspan x="201.83" y="0" style="letter-spacing:-0.00999813988095238em">r</tspan><tspan x="210.23" y="0">ds </tspan><tspan x="239.08" y="0" style="letter-spacing:-0.00999813988095238em">a</tspan><tspan x="250.75" y="0" style="letter-spacing:-0.024995349702380952em">r</tspan><tspan x="258.84" y="0">e </tspan><tspan x="277.63" y="0" style="letter-spacing:0.00499906994047619em">e</tspan><tspan x="289.81" y="0">asi</tspan><tspan x="317.37" y="0" style="letter-spacing:-0.01999627976190476em">l</tspan><tspan x="322.11" y="0">y </tspan><tspan x="340.59" y="0" style="letter-spacing:-0.04499162946428571em">a</tspan><tspan x="351.53" y="0" style="letter-spacing:-0.01999627976190476em">v</tspan><tspan x="363.21" y="0">ail</tspan><tspan x="385.59" y="0">-</tspan><tspan x="0" y="25.2">ab</tspan><tspan x="24.13" y="25.2" style="letter-spacing:0.00999813988095238em">l</tspan><tspan x="29.5" y="25.2">e </tspan><tspan x="48.3" y="25.2" style="letter-spacing:-0.024995349702380952em">r</tspan><tspan x="56.38" y="25.2" style="letter-spacing:0.004975818452380952em">e</tspan><tspan x="68.56" y="25.2">a</tspan><tspan x="80.45" y="25.2" style="letter-spacing:-0.019973028273809524em">d</tspan><tspan x="91.83" y="25.2">y </tspan><tspan x="110.31" y="25.2" style="letter-spacing:-0.014997209821428572em">t</tspan><tspan x="119.42" y="25.2">o h</tspan><tspan x="149.05" y="25.2" style="letter-spacing:-0.00999813988095238em">a</tspan><tspan x="160.73" y="25.2">nd.</tspan></text></svg>